<?xml version="1.0" encoding="UTF-8"?>
<!DOCTYPE svg PUBLIC "-//W3C//DTD SVG 1.1//EN" "http://www.w3.org/Graphics/SVG/1.1/DTD/svg11.dtd">
<!-- Creator: CorelDRAW -->
<svg xmlns="http://www.w3.org/2000/svg" xml:space="preserve" width="210mm" height="297mm" style="shape-rendering:geometricPrecision; text-rendering:geometricPrecision; image-rendering:optimizeQuality; fill-rule:evenodd; clip-rule:evenodd"
viewBox="0 0 210 297"
 xmlns:xlink="http://www.w3.org/1999/xlink">
 <defs>
  <style type="text/css">
   <![CDATA[
    .str2 {stroke:black;stroke-width:0.1;stroke-opacity:0.501961}
    .str1 {stroke:black;stroke-width:0.1}
    .str3 {stroke:black;stroke-width:0.5}
    .str0 {stroke:#1F1A17;stroke-width:0.75}
    .fil3 {fill:none}
    .fil0 {fill:#1F1A17}
    .fil1 {fill:white}
    .fil4 {fill:#C2C1C1;fill-rule:nonzero}
    .fil5 {fill:white;fill-rule:nonzero}
    .fil6 {fill:black;fill-rule:nonzero}
    .fil2 {fill:white;fill-rule:nonzero;fill-opacity:0.501961}
   ]]>
  </style>
 </defs>
<symbol id="villes" viewBox="104.473 147.973 1.0539 1.0539">
 <circle class="fil0" cx="105" cy="148.5" r="0.526885"/>
</symbol>
<symbol id="Capitale" viewBox="103.719 147.219 2.5615 2.5615">
 <circle class="fil1 str0" cx="105" cy="148.5" r="0.905629"/>
</symbol>
 <g id="Plan_x0020_1">
  <metadata id="CorelCorpID_0Corel-Layer"/>
  <use x="109.26" y="139.978" width="2.5615" height="2.5615" xlink:href="#Capitale"/>
  <use x="107.632" y="125.812" width="1.0539" height="1.0539" xlink:href="#villes"/>
  <use x="121.629" y="125.228" width="1.0539" height="1.0539" xlink:href="#villes"/>
  <use x="138.007" y="137.475" width="1.0539" height="1.0539" xlink:href="#villes"/>
  <use x="124.351" y="157.985" width="1.0539" height="1.0539" xlink:href="#villes"/>
  <use x="34.5863" y="146.515" width="1.0539" height="1.0539" xlink:href="#villes"/>
  <use x="76.0907" y="145.251" width="1.0539" height="1.0539" xlink:href="#villes"/>
  <use x="111.715" y="165.566" width="1.0539" height="1.0539" xlink:href="#villes"/>
  <use x="96.5999" y="175.286" width="1.0539" height="1.0539" xlink:href="#villes"/>
  <use x="105.008" y="175.335" width="1.0539" height="1.0539" xlink:href="#villes"/>
  <use x="116.366" y="184.735" width="1.0539" height="1.0539" xlink:href="#villes"/>
  <use x="139.271" y="161.921" width="1.0539" height="1.0539" xlink:href="#villes"/>
  <use x="174.457" y="139.954" width="1.0539" height="1.0539" xlink:href="#villes"/>
  <use x="157.156" y="134.122" width="1.0539" height="1.0539" xlink:href="#villes"/>
  <use x="69.1409" y="84.9875" width="1.0539" height="1.0539" xlink:href="#villes"/>
  <use x="120.851" y="38.0885" width="1.0539" height="1.0539" xlink:href="#villes"/>
  <use x="100.294" y="119.688" width="1.0539" height="1.0539" xlink:href="#villes"/>
  <path class="fil1 str1" d="M54.7635 193.243c-0.5593,0.0577 -1.3131,-0.154 -1.8302,-0.3534 -0.3901,-0.1503 -0.5292,-0.5765 -0.8878,-0.719 -0.7556,-0.3005 -0.3574,-1.0727 -1.2708,-1.3405 -0.3895,-0.1141 -1.4189,0.0077 -1.5626,-0.3047 -0.392,-0.8526 -1.1065,-0.4625 -1.8667,-0.524l-1.4593 0.1767c-0.5632,0.0682 -0.4399,-0.0534 -0.9303,-0.2254 -0.5988,-0.2099 -2.0029,0.1556 -2.4444,0.5971 -0.0385,0.0047 -0.0648,0.0033 -0.1033,-0.0122 -0.2966,-0.3955 -1.139,-0.3864 -1.5749,-0.2742 -0.262,0.0457 -1.2603,0.1435 -1.3438,-0.2315 -0.2784,-0.1602 -0.6484,0.026 -0.9424,-0.0914l-1.0215 -0.4083c-0.2981,-0.1191 -1.3072,-0.754 -1.1857,-1.0968 0.103,-0.2909 -0.8057,-0.2448 -0.7479,-0.7982 0.0356,-0.3407 -0.0838,-0.3228 -0.2858,-0.5606l-0.7904 -0.8591c-0.2439,-0.265 -0.4839,-0.5175 -0.529,-0.8896 -0.0235,-0.1936 0.0272,-0.4379 -0.0669,-0.6155 -0.164,-0.3093 -0.5016,-0.4581 -0.2676,-0.8043 0.084,-0.1242 0.4486,-0.6849 0.4135,-0.7555 -0.1439,-0.2886 -0.2545,-0.1882 -0.079,-0.4814 0.205,-0.27 0.3819,-0.4617 0.231,-0.8043 -0.0949,-0.2157 -0.3068,-0.4333 0.0669,-0.4814 0.942,-0.1214 0.048,-0.7251 0.3466,-1.0237 0.2619,-0.2619 0.6217,0.0264 0.8816,-0.2681 0.0463,-0.0524 -0.1161,-0.4495 -0.1459,-0.5301 -0.043,-0.1159 -0.384,-0.0621 -0.4986,-0.1279 -0.1757,-0.1007 -0.2414,-0.562 -0.2189,-0.7373 -0.0601,-0.3482 -0.0946,-0.7523 -0.3405,-1.0298 -0.1442,-0.1626 -0.3374,-0.6295 -0.383,-0.8348 -0.0457,-0.2061 0.0474,-0.2849 0.1459,-0.4326 0.1399,-0.21 0.0538,-0.4154 -0.1399,-0.5423 -0.1022,-0.067 -0.0815,-0.1998 -0.0851,-0.3168 0.1771,-0.4446 0.0001,-1.0817 -0.3648,-1.3893 -0.4376,-0.369 -1.1133,-0.0907 -1.4654,-0.4692 -0.1896,-0.2037 -0.6405,-0.3523 -0.7175,-0.652 -0.0755,-0.2935 0.2825,-0.6439 0.1885,-0.9261 -0.1007,0 -0.3784,0.2626 -0.4499,0.3412 -0.2074,0.2276 -0.2558,0.2179 -0.3588,0.5545 -0.2138,0.3203 0.1186,0.95 -0.2493,0.8957 -0.4276,-0.063 -0.5257,-0.2296 -0.4621,-0.5972 0.0769,-0.4438 -1.4192,-0.8154 -1.7633,-0.7007 -0.1755,0.0584 -0.3827,0.3158 -0.5594,0.2133 -0.1489,-0.0865 -0.4268,-0.1727 -0.3588,-0.3595 0.3933,-1.0811 -0.7548,-0.2359 -1.058,-0.4814 -0.1181,-0.0957 -0.5669,-0.3179 -0.6384,-0.2803 -0.2178,0.1147 -0.3645,0.3579 -0.6141,0.39 -0.5921,0.0761 -1.0968,-0.1606 -1.4897,-0.5545 -0.1252,-0.1367 -0.3997,-0.2992 -0.5898,-0.3047 -0.248,-0.0071 -0.3419,0.0702 -0.4986,-0.1706 -0.1989,-0.3058 0.5297,-0.3475 0.2189,-0.7007 -0.0902,-0.1024 -0.2952,-0.5745 -0.3892,-0.5789 -0.5823,-0.0278 -0.4539,0.0413 -0.7479,-0.4509 -0.2606,-0.4364 -0.6043,-0.7896 -0.833,-1.2613 -0.0883,-0.1894 -0.0718,-0.3451 -0.2736,-0.457 -0.1703,-0.0943 -0.2755,-0.0416 -0.4196,-0.2071 -0.2537,-0.2911 -0.2686,-0.6278 -0.6263,-0.847 -0.1451,-0.089 -0.48,-0.1766 -0.5715,-0.2681 -0.1,-0.1 -0.1308,-0.255 -0.2432,-0.3595 0.1792,-0.5913 -0.4135,-0.7177 -0.4135,-1.1577 0.2209,0 0.4174,0.2613 0.5898,0.3777 0.3318,0.2242 0.3678,-0.1279 0.5776,-0.1279 0.4306,0 0.6997,0.3628 1.1979,0.3412 0.2922,-0.0127 0.3346,0.2489 0.754,0.1828 0.2147,-0.0339 0.5614,-0.3156 0.7174,-0.2376 0.4585,0.2292 0.465,0.1083 0.9364,-0.0366 0.19,-0.0584 0.1886,0.109 0.3041,0.2011 0.1733,0.1383 0.5382,0.1049 0.7418,0.0975 0.1699,-0.0154 0.7718,-0.2145 0.8512,-0.1828 0.2345,0.0938 0.2978,0.2517 0.5959,0.2803 0.2558,0.0246 0.3871,-0.107 0.6081,-0.1767 0.1579,-0.0499 0.2694,-0.0183 0.4256,-0.0244 0.1786,-0.0069 0.5127,-0.2996 0.6932,-0.3839 0.0657,-0.0306 0.4751,0.6385 0.6506,0.78 0.1526,0.1232 0.2321,0.2248 0.2736,0.4204 0.0528,0.2494 0.4244,0.3802 0.6445,0.457 0.2116,0.0386 0.4359,-0.0253 0.6263,0.0122 0,0.1747 -0.1678,0.3109 -0.1338,0.5423 0.0218,0.1481 0.2646,0.1507 0.3831,0.2254 0.6101,0.3845 1.3095,1.2512 2.1221,1.304 0.3902,0.0254 0.2541,0.0612 0.1702,0.3351 -0.0801,0.2619 0.1946,0.128 0.2493,0.2864l0.2311 0.6703c0.3492,1.0127 1.2122,0.1301 1.4836,0.2498 0.502,0.2216 0.1792,-0.3285 0.3101,-0.4265 0.2953,-0.2213 0.6543,-0.189 1.0033,-0.2499l0.2006 -0.0061c0,0.7506 0.5151,0.9323 1.1614,0.9323 0.2348,0 0.2708,0.2103 0.5047,0.2255 0.5486,0.0356 0.3634,0.297 0.6992,0.591l0.5776 0.5058c0.3437,0.3009 0.5311,0.0245 0.8695,0.5057 0.4,0.569 0.7811,0.1924 1.3134,0.3351 0.5456,0.0089 0.3859,-0.0636 1.0215,0.0366l1.0033 0.1584c0.71,0.112 0.9008,0.7519 1.5323,0.9323 0.3795,0.1083 0.637,-0.2887 0.8695,0.1645 0.099,0.1928 1.1489,0.6972 1.362,0.5971 0.9205,-0.4324 0.5777,0.1251 1.1735,0.6033 0.3064,0.0644 0.4355,0.3865 0.8269,0.4082 0.3614,0.0201 0.8043,-0.0786 1.0945,0.195 0.0931,0.0879 0.1593,0.2602 0.2676,0.323 0.0875,0.0506 0.2614,0.0614 0.3526,0.0914 0,0.0869 -0.3105,0.1246 -0.2979,0.3473 0.012,0.213 0.3997,0.5496 0.1034,0.786 -0.3814,0.3044 -0.3076,0.665 -0.2068,1.0968 0.0947,0.3069 0.2689,0.2374 0.4682,0.5118l1.6904 2.3277 1.0397 1.1211c0.4081,0.4399 0.9907,0.6923 1.3864,1.1456 0.3394,0.316 0.5213,0.4237 0.5898,0.8896 0.0344,0.2339 0.0583,0.4954 0.2553,0.652 0.0698,0.0554 0.4489,0.0711 0.4014,0.2254 -0.0461,0.1494 -0.317,0.9952 0.1459,0.8348 0.4404,-0.1525 0.1036,-0.3523 0.5594,-0.0853 0.1586,0.0928 0.4002,0.041 0.5107,0.2011 0.2036,0.2953 0.2831,0.6297 0.5351,0.9322 0.2384,0.286 0.4211,0.7856 0.4925,1.1456 0.0877,0.2886 0.1458,0.6864 0.2797,0.9444 0.0835,0.1608 0.3361,0.3331 0.3527,0.4631 0.0477,0.3716 -0.0249,0.8579 -0.0851,1.2248 -0.0435,0.2646 0.0386,0.6371 -0.1399,0.8591 -0.1052,0.1307 -0.4783,0.0627 -0.6506,0.1523 -0.3426,0.1781 -0.2569,0.6601 -0.5898,0.847 -0.4491,0.252 -0.9163,0.3412 -1.435,0.3412l-0.5776 0zm-2.566 35.1704c0.5833,0.4874 1.0099,1.2136 1.4411,1.8158 0.3199,0.4469 0.9132,1.1599 1.4776,1.2918 0.3863,0.0902 -0.3491,0.3057 -0.4804,0.4143 -0.1293,0.1068 -0.1711,0.4855 -0.3283,0.3535 -0.2265,-0.1904 -0.0745,-0.446 -0.4926,-0.5119 -0.4461,-0.0704 -0.6288,-0.1015 -1.1066,-0.0061 -0.3114,0 -0.6406,-0.2539 -0.8877,-0.4204 -0.35,-0.236 -0.7018,-0.3664 -1.1249,-0.4265 -0.6988,-0.0994 -1.8946,0.1501 -2.2984,0.7982 -0.2314,0.3716 -0.2217,1.1434 -0.5959,1.31 -0.4866,0.2301 -0.6858,0.3647 -1.0519,0.0183 -0.2109,-0.1994 -0.6002,0.4864 -0.681,0.6093 -0.1766,0.2684 -0.3102,0.1195 -0.5533,0.1889 -0.2563,0.0731 -0.4052,0.7749 -0.5169,0.7556 -0.2229,-0.0384 -0.2527,-0.5195 -0.5107,-0.6398 -0.1665,-0.0777 0.095,-0.2648 0.0668,-0.4143 -0.063,-0.3345 -0.5569,-1.1473 -0.8573,-1.2735 -0.2994,-0.1257 -0.449,0.6129 -0.5655,0.0548 -0.0692,-0.3314 -0.3758,-0.5185 -0.6202,-0.7312 -0.1809,-0.1573 -0.2519,0.0363 -0.3648,0.1645 -0.1953,0.222 -0.4603,-0.2169 -0.602,-0.3046 -0.229,-0.2715 -0.4,-0.7855 -0.7539,-0.9018 -0.478,-0.1572 -0.4098,-0.4972 -0.7662,-0.7556 -0.2292,-0.1663 -0.5166,-0.136 -0.7418,-0.2925 -0.1852,-0.1288 -0.2092,-0.5947 -0.304,-0.8165 -0.1486,-0.3474 -1.0641,-0.5622 -1.4167,-0.6276 -0.2339,-0.0434 -0.5076,-0.3639 -0.6263,-0.3595 -0.6078,0.023 -0.3169,0.0801 -0.602,-0.4692 -0.1405,-0.4217 -0.3904,-0.536 -0.8269,-0.4996 -0.4505,0.0375 -0.6983,-0.2179 -0.2919,-0.5179 0.0464,-0.0343 -0.0121,-0.3441 -0.0304,-0.3961 -0.1017,-0.2877 -0.2858,-0.4409 -0.2858,-0.7617 0,-0.4256 -0.705,-0.4432 -0.7539,-0.9444 -0.0285,-0.2931 -0.0027,-0.4687 -0.1825,-0.7312 0,-0.3295 0.3181,-0.897 0.1156,-1.1821 -0.2235,-0.3148 -0.8135,-0.147 -0.9972,-0.4692 -0.1986,-0.3486 -0.3885,-0.1113 -0.6324,-0.2559 -0.3464,-0.2052 0.2502,-0.4195 0.2858,-0.4631 0.1923,-0.2349 -0.7284,-0.6706 -0.833,-0.7799 -0.1381,-0.1445 -0.1149,-0.4847 -0.2736,-0.6947 -0.1666,-0.3947 -0.4779,-1.4789 -0.906,-1.6513 -0.2644,-0.1064 -0.3104,0.0161 -0.5169,0.1341 -0.1649,0.0941 -0.2721,-0.4375 -0.3344,-0.5301 -0.0644,-0.0955 -0.2339,-0.1489 -0.2736,-0.2559 -0.0562,-0.1518 0.2167,-0.2278 0.231,-0.3534 0.0282,-0.2486 -0.0852,-0.3709 -0.0912,-0.5911 -0.1182,-0.2389 -0.6317,-0.0625 -0.8451,-0.1158 0,-0.2474 0.1278,-0.1644 0.231,-0.2559 0.0684,-0.0605 0.0061,-0.2244 0.0061,-0.3168 0,-0.5257 0.0935,-0.7819 -0.2493,-1.2309 -0.2,-0.2621 -0.2748,-0.5441 -0.4074,-0.8226 -0.1214,-0.2547 -0.0765,-0.1786 -0.0669,-0.4448 0.0043,-0.1187 -0.0387,-0.2178 -0.0304,-0.3351 -0.0788,-0.4749 -0.1309,-0.8858 -0.3162,-1.3405 -0.1381,-0.3391 -0.435,-0.4907 -0.535,-0.8531 -0.2093,-0.7589 -1.1244,-1.2989 -1.7086,-1.7792 -0.1348,-0.1514 -0.2619,-0.4895 -0.3649,-0.6764 -0.1112,-0.2016 -0.1617,-0.4224 -0.2493,-0.6337 -0.1809,-0.4366 -0.3871,-0.6693 -0.383,-1.1821l0.0061 -0.7434c0.1265,-0.674 -0.8029,-0.7982 -0.5838,-1.4867 0.0572,-0.1796 0.1504,-0.167 -0.0304,-0.323 -0.2277,-0.1964 -0.3187,-0.2883 -0.3101,-0.6032 0.011,-0.4055 0.1718,-0.4422 -0.1824,-0.652 -0.0314,-0.0186 -0.0613,-0.4896 -0.079,-0.5484 -0.098,-0.3134 -0.1914,-0.513 -0.5169,-0.6215 -0.294,-0.0979 -0.3596,-0.2324 -0.5229,-0.4692 -0.3791,-0.5495 -1.5641,0.6187 -1.6295,-0.0792 0.1531,-0.4373 0.2859,-0.983 0.1824,-1.4441 -0.0675,-0.3011 0.0365,-0.4814 0.0365,-0.7677 0,-0.1483 -0.079,-0.299 -0.1217,-0.4448 -0.0657,-0.2247 0.1809,-0.0427 0.3223,-0.0427 0.544,0 1.0211,-0.195 1.2587,-0.6703 0.3157,0 0.5757,1.0981 1.1248,1.1943 0.1496,0.0262 0.4289,-0.2241 0.6567,-0.2315 0.6182,-0.02 0.3754,-0.2051 0.7297,-0.4936 0.0821,-0.0669 0.382,0.4591 0.4742,0.5362l0.5169 0.4327c0.1148,0.096 0.1741,0.2759 0.2797,0.3899 0.1379,0.149 0.3222,0.0699 0.3222,0.3473 0,0.2879 -0.2361,0.2984 -0.1216,0.6764 0.3242,0.2703 0.6554,2.8316 1.3499,1.8584l0.0365 0 0.3162 0.4509c0.1763,0.2514 0.4314,0.3251 0.6019,0.6094 0.1438,0.2396 0.0973,0.6892 0.0973,0.9627 0,0.758 0.5009,1.893 1.0702,2.3886 0.2379,0.207 0.8809,0.261 0.9789,0.457 0.0808,0.1617 0.0222,0.3687 0.1034,0.5301 0.1374,0.2728 0.2465,0.4419 0.4682,0.6642 0.4037,0.3582 0.8629,0.6101 1.0945,1.115 0.0925,0.2015 0.228,0.3901 0.304,0.5972 0.1022,0.2781 0.1842,0.5744 0.3648,0.8165 0.2859,0.2003 0.4195,0.7023 0.6932,0.9627 0.1755,0.1671 0.2397,0.2586 0.4742,0.2803 0.0237,0.0021 0.1025,0.3308 0.1338,0.39 0.3197,0.6028 1.0177,1.3061 1.5019,1.7914 0.5919,0.9823 1.6497,1.4727 2.5598,2.0656 0.8855,0.577 1.5554,1.2243 2.1586,2.0961 0.5099,0.9169 1.7623,1.685 2.5294,2.3886l1.2952 1.1881c0.4181,0.3834 1.0792,0.8141 1.4046,1.2492l1.3741 1.0907c0.3049,0.2419 0.6484,0.6986 0.9486,0.981 0.5735,0.5397 1.1184,0.73 1.5931,1.3649 0.4266,0.5707 1.2225,0.9747 1.7268,1.5233l0.3891 0.329zm57.071 -39.198c0,0.8478 0.0856,0.3164 0.7661,2.3154l-2.2376 0.8409 -0.2554 0.7434 0.2797 1.1699 1.6296 0.1706 -0.6567 -1.3162 1.7633 -0.5727 -0.8148 -2.4373 0.9121 0.2803 0.5472 0.0975 0.681 -0.0854 0.7783 -0.2802 0.523 -0.195 0.0121 -0.2316 -0.8148 0.1097 -0.6931 0.3047 -0.9729 -0.1097 -1.0823 -0.1341 -0.304 -1.0358 2.0065 -0.5972 0.1459 0.4266 0.9243 -0.2438 0.0608 0.1219 0.6567 -0.1706 -0.8635 -2.2789 -2.1281 0.5118 -1.5931 0.5241 -0.4743 0.1462 -0.4013 0.4753 -0.5837 0.6215 -0.8756 0.914 -0.6688 1.3405 0.912 2.8517 0.4743 -0.1219 -0.6688 -2.4373 0.5107 -0.1097 0.2797 1.243 1.9822 -0.5849 -0.4013 -1.2796 -0.1337 -0.6825 0.3405 -0.6093 0.2797 0.1463 0.1581 0.1584zm16.6725 -1.7975l1.0641 1.0602 -0.225 0.1767 -0.2493 -0.0548 -0.1885 0.1645 -0.2554 0.1462 -0.7904 -0.3534 -0.3101 -0.2437 -0.0791 -0.39 0.0791 -0.39 0.4074 -0.0243 0.3648 -0.0305 0.1824 -0.0609zm44.649 -29.9595l-0.0017 0.0484 -25.458 0.1329 0 6.9345 -1.1669 0 0 1.0602 -1.1552 0 -0.0001 1.2429 -1.1308 0 0 1.1699 -1.1433 0.0489 0 1.1332 -2.2739 0 0 1.1943 -1.2041 0 0 1.036 -1.2038 0 -0.0001 0.914 -0.5288 0.038 0 0.5712 -0.7723 0c-0.1238,0.2481 -0.2256,0.403 -0.3285,0.6582 -0.1558,0.386 -0.0358,0.8745 -0.1459,1.2674 -0.0784,0.2802 -0.3167,0.5016 -0.3405,0.7921 -0.0396,0.484 -0.2537,1.0875 -0.1581,1.5842 0.1312,0.6809 -0.5201,0.8525 -1.0215,1.0725l-1.6052 1.767c-0.6867,0.7559 -0.8339,2.2 -1.4107,3.132 -0.1961,0.3168 -0.5351,0.8871 -0.5351,1.2552 0,0.4422 0.5678,1.1544 0.6932,1.6573l0.1216 1.2918 -2.9809 2.0157 0 0c-0.023,-0.0624 -0.0615,-0.123 -0.1201,-0.1816l-0.0669 -0.2011 0.45 -0.3595 0.1459 -0.2193 -2.268 -2.3886 -0.1095 0.1097 0.9972 1.0115c-0.2557,0.2136 -0.4535,0.0157 -0.7661,0.1157 -0.2494,0.0798 -0.3339,0.3359 -0.3466,0.5728 -0.0424,0.7915 0.4133,0.6137 0.9546,0.9505 0.2887,0.1795 0.5314,0.1868 0.7966,0.4509 0.1614,0.1606 0.1155,0.293 0.1155,0.5058 0,0.2783 -0.2005,0.0857 -0.3283,-0.0122 -0.2496,-0.1914 -0.6042,-0.4497 -0.906,-0.5362 -0.8925,-0.335 -1.6829,-0.9542 -2.5903,-1.3101 -0.8251,-0.3237 -1.5654,-0.7996 -2.4747,-0.9079 -0.4388,-0.0452 -2.1387,-0.5968 -2.2559,0.0732 -0.0345,0.1971 -0.22,0.3774 -0.1824,0.0792 0.0419,-0.3329 -0.0356,-0.3164 -0.3405,-0.2194 -0.3854,0.1225 -0.8563,0.636 -1.1492,0.0549 -0.2895,-0.0358 -0.4969,0.1408 -0.7722,-0.0244 -0.1293,-0.0775 -0.5989,-0.4387 -0.7175,-0.4387 -0.1186,0.2393 0.1881,0.6282 0.3344,0.8104l0.6202 0.3656 0.3162 0.3777 0.8756 0.5363 -0.1946 0.3534 0.4743 1.6086 -1.0215 0.1462 0.0122 0.2925 1.1066 0 0.0243 0.4875 -1.4836 0.0487 -0.0973 -0.5362 -0.7053 -0.0244 -0.2189 -0.329 0.3283 -0.2437 0.9364 -0.1097 0.2797 -0.524 -0.6567 0 0 -1.0968 -0.2067 0 -0.0122 1.0968 -0.9364 -0.0975 -0.0243 -0.9628 -0.8756 0.5484 0.8635 0.719 -0.0608 0.3656 -1.0216 -0.8774 -0.0427 -0.8683 0.982 -0.7799 -0.0243 -1.0024 -0.1916 0.0092 -0.0304 0.9536 -0.1276 0.0761 -0.2919 0.0762 -0.1397 -0.1158 -0.0182 -1.0176 -0.1824 0.0305c-0.0021,0.4684 -0.0891,0.6262 0.0121,0.9323l-0.2128 -0.1036 -0.5412 -1.0785 -0.0729 -0.3717 1.5991 -0.8713 -0.0243 -0.1341 -1.4836 0.7495 -0.1703 -0.4022 1.5931 -0.8348 -0.0365 -0.1279 -1.1674 0.5606 -0.906 0.524 -0.9242 0.195 -2.5781 0.9322 -0.1277 -0.3412 0.1642 -0.3351 0.4499 -0.8104 0.8938 -0.6154 -0.0729 -0.1036 -0.602 0.3229 -0.3466 0.323 -0.4074 0.7433 -0.912 1.2309 -0.0365 -0.9688 -0.4621 0.1462 0.0121 0.1767 0.2797 0.0853 0.0122 0.8165 -0.7479 0.9749 -0.1277 -0.0304 -0.0669 -0.8592 0.298 -0.5423 -0.1581 -0.0731 -0.2919 0.5362 0.0304 0.8287 -0.529 -0.1036 -0.1946 -0.4448 0.4865 -1.438 -0.2128 -0.0731 -0.529 0.1035 -0.2493 -0.3899 -0.1338 0.0731 0.1885 0.3595 0.4074 0.5179 -0.1703 0.5911 -0.3344 -0.1524 -0.079 0.0853 0.231 0.2011 -0.0851 0.2072 -0.3892 0.0914 -0.7722 0.2376 -0.0061 0.1036 0.8209 -0.0122 0.529 -0.134 0.4317 0.5057 -0.0547 0.4266 -0.3223 0.0121 -0.0425 0.1402 0.2857 0.2437 -0.4681 1.0785 0.9363 3.1015 -0.2675 0.067 -0.2919 -0.9871 -0.1398 0.0305 0.2797 0.9688c0.0292,0.1863 0.1174,0.3439 0.152,0.524 0.0205,0.1064 0.0575,0.4014 -0.0608,0.457 -0.0753,0.0353 -0.1885,-0.0324 -0.2371,-0.0853 -0.0944,-0.1026 -0.1206,-0.3123 -0.2007,-0.4326l-0.377 -1.1821 -0.0182 -0.0609 -0.2432 0.0914 0.2857 1.0236c-0.032,0.0553 -0.0877,0.2423 -0.1337,0.2682 -0.0763,0.0431 -0.142,0.0195 -0.225,0.0365 -0.2123,0.0435 -0.3792,-0.0344 -0.2554,0.2437 0.0682,0.153 0.0912,0.1658 0.0912,0.3291 0,0.2018 0.1684,0.2426 0.3101,0.3412 0.174,0.1209 0.4912,0.0966 0.6324,0.2498 0.0769,0.0833 0.1754,0.1803 -0.0061,0.1706 -0.2931,-0.0156 -0.823,-0.3637 -1.0519,-0.1096 -0.1776,0.2127 -0.4379,0.5301 -0.7418,0.5301 -0.1474,0 -0.6088,0.0196 -0.6506,-0.1585 -0.1407,-0.5998 -0.8638,-0.8729 -1.4168,-0.981 -0.4224,-0.0825 -0.7336,-0.3134 -1.137,-0.396 -0.1737,-0.0356 -0.4214,0.06 -0.5655,-0.0122 -0.1269,-0.0637 -0.1549,-0.3418 -0.3344,-0.4448 -0.4125,-0.2366 -1.4747,-0.7243 -1.9153,-0.7495 -0.4201,-0.241 -0.8924,-0.495 -1.3438,-0.6642 -0.1874,-0.0703 -0.9224,-0.0691 -0.9972,-0.1523 -0.073,-0.0814 -0.0533,-0.3963 -0.1338,-0.5301 -0.3686,-0.6118 -1.1044,-1.6497 -1.9457,-1.1577 -0.3389,0.1982 -0.2229,-0.0876 -0.4925,-0.0366 -0.1515,0.0087 -0.5196,0.1787 -0.5473,-0.0792 -0.0165,-0.1546 -0.0249,-0.3175 -0.1702,-0.4022 -0.4041,-0.2358 -1.0311,-0.1124 -1.3803,0.1889 -0.2009,0.1732 -0.4409,-0.0177 -0.6992,0.1585 -0.3021,0.2059 -0.57,0.6772 -0.8999,0.2437 -0.1924,-0.2527 -0.5768,-0.5728 -0.906,-0.5728 -0.2602,0 -0.5643,0.1596 -0.602,-0.1462 -0.0574,-0.4643 -0.0242,-0.3636 -0.3709,-0.6581 -0.0156,-0.2072 0.1299,-0.5677 0.0304,-0.6824 -0.1596,-0.1837 -0.2573,-0.2709 -0.0851,-0.4875 0.0524,-0.0658 -0.1372,-0.2614 -0.1642,-0.323 -0.0362,-0.0822 0.0046,-0.1617 -0.0121,-0.2437 -0.0496,-0.2422 -0.1872,-0.335 -0.3588,-0.4935 -0.2659,-0.2458 0.2935,-0.4046 -0.3952,-0.5423 -0.2326,-0.0464 -0.0538,-0.2931 -0.1459,-0.4083 -0.0909,-0.1139 -0.5561,-0.124 -0.2493,-0.3595 0.2834,-0.2174 0.4423,0.0073 0.3526,-0.4935 -0.2524,-0.3989 -0.5898,0.2394 -0.7844,-0.4692 -0.1103,-0.4015 0.2946,-0.243 0.3892,-0.6215 0.0678,-0.2716 0.1187,-0.4267 0.2432,-0.6764 0.199,-0.3994 0.3405,-0.7178 0.7661,-0.9384 0.4546,-0.2355 1.49,-0.2667 1.3681,-0.9566 -0.0433,-0.0349 -0.231,-0.3508 -0.231,-0.3961 0,-0.2448 0.2235,-0.3093 0.3466,-0.4631 0.1139,-0.1425 0.1571,-0.2378 0.3283,-0.3168 0.1866,-0.0862 0.4258,-0.072 0.6202,-0.1645 0.2535,-0.1205 0.4581,-0.2803 0.5533,-0.5667 0.1303,-0.2896 0.2684,-0.5531 0.2797,-0.8774 0.0121,-0.3449 0.2922,-0.7452 0.2372,-1.0785l-0.0122 -3.1015c-0.2468,-0.603 -0.3934,-1.8811 -0.9911,-2.2241 -0.1443,-0.0827 -0.1534,-0.2918 -0.2067,-0.4326 -0.1165,-0.3071 -0.2664,-0.5698 -0.3284,-0.9018 -0.1137,-0.6078 -0.2658,-1.0192 -0.5229,-1.5782 -0.5293,-0.7226 -0.5714,-1.8463 -0.9729,-2.6505 -0.3522,-0.7057 -1.0516,-1.7438 -1.1309,-2.5226 -0.3327,-1.3355 -1.0977,-2.4875 -1.6174,-3.7413 -0.1183,-0.2853 -0.3999,-0.7736 -0.4074,-1.0663 -0.3161,-0.6738 -0.5483,-1.4132 -0.9607,-2.0352 -0.1825,-0.2752 -0.9822,-1.7116 -0.9182,-1.9316 -0.157,-0.2795 -0.5461,-0.487 -0.8026,-0.6641 -0.1269,-0.0875 0.3678,-0.2851 0.4257,-0.3108 0.5315,-0.2368 0.9339,-0.5764 1.0215,-1.1455 0.0617,-0.4014 -0.0852,-0.7037 -0.2007,-1.0542 -0.2261,0.056 -0.1954,0.6985 -0.1763,0.8897 0.0389,0.3875 -0.3759,0.5628 -0.6506,0.7738 -0.1484,0.1141 -0.5533,0.4875 -0.7297,0.4875 -0.0422,-0.1717 -0.0192,-0.3821 -0.0547,-0.5667 -0.0751,-0.3909 -0.3093,-0.5756 -0.4804,-0.9079l-1.5565 -2.0291c-0.6233,-0.7926 -1.0746,-1.753 -1.8181,-2.4373 -0.5571,-0.5129 -1.2241,-1.1958 -1.6721,-1.8097l-3.0341 -2.7481 -1.7816 -0.9627c-0.4771,-0.2577 -1.0854,-0.4526 -1.6356,-0.39 -0.3849,0.0438 -0.6023,0.1433 -0.9912,0.0305 -0.564,-0.1976 -1.5711,-0.8076 -2.1524,-0.3412 -0.4956,0.3978 -1.1415,0.3909 -1.7451,0.2193 -0.4911,-0.1397 -1.1863,-0.0974 -1.6904,-0.0304 -0.375,0.0498 -0.6351,0.2471 -0.985,0.3473l-2.1038 0c-0.6205,0 -1.1972,0.1243 -1.812,0.0426 -1.0757,-0.1431 -2.3688,-0.3242 -3.4537,-0.2315 -1.0069,0 -1.5829,-0.1272 -2.0308,0.8287 -0.294,0.6277 -1.1796,0.0939 -1.6357,0.0792 -0.6109,-0.0198 -1.0906,0.0929 -1.6417,0.329 -0.6894,0.2955 -1.3868,-0.1136 -2.0917,-0.201 -1.0096,0 -2.125,-0.2854 -3.1192,-0.1463 -0.4902,0.0685 -1.5688,0.4749 -1.5688,1.1029 -0.0079,0.0159 -0.0164,0.0357 -0.0304,0.0427 -0.0067,0.0117 -0.0091,0.0151 -0.0182,0.0243 -0.8672,0.1221 -1.8007,-0.1569 -2.6572,0.3169 -1.2812,0.4488 -2.42,1.1723 -2.42,2.6627 -0.2904,0.1671 -0.6701,0.0346 -1.0276,0.256 -0.1791,0.1108 -0.5642,0.7779 -0.6323,0.7738 -0.3103,-0.0187 -1.1819,-1.2626 -1.2952,-1.5172 -0.2237,-0.5029 -1.1441,-0.9659 -1.5687,-1.3405 -0.3078,-0.2714 -0.6129,-0.7724 -0.979,-0.9323 -0.5833,-0.2769 -1.0484,-0.8725 -1.6538,-1.176 -0.3535,-0.1771 -1.051,-0.6455 -1.4411,-0.6033 -0.3877,0.042 -0.5112,0.1371 -0.9182,-0.006l-1.2647 -0.4449c-0.5912,-0.2079 -1.5615,-0.2111 -2.1829,-0.134 -0.3887,-0.0182 -0.6329,0.0324 -0.9546,-0.195 -0.2305,-0.1628 -0.5959,-0.2497 -0.8756,-0.2559 -0.2924,-0.0064 -1.5063,0.1259 -1.6478,-0.0792 -0.1807,-0.2621 -0.425,-0.4369 -0.7418,-0.524 -0.4513,-0.124 -1.0759,-0.1263 -1.4532,0.1888 -0.4446,0.3712 -0.9248,-0.1007 -1.4217,-0.2633l0 0 0.5887 -4.8794 20.1012 -14.9163 16.0769 0.0487 0.0243 -11.6016 4.5725 0 -0.0973 -5.1671 -0.608 -3.461 -32.3799 -80.1439 0 0 -0.601 -1.4874 3.7588 0 0 -2.6143 157.939 -0.9235 0 0 0.0439 42.7661 0.8627 0 0.0972 17.2214 1.812 26.0892 -4.1573 19.2312 -0.7549 2.3089 -6.0005 18.7349c-0.2802,0.6326 -0.0588,2.0092 -0.3482,2.3966 -0.5228,0.7001 -1.5492,0.4689 -2.2984,0.3107l-2.6517 -0.591 0.0608 3.0832 -2.3592 0 -1.4349 2.9369 -0.8026 1.4014 -0.0122 1.4624 1.1553 0.0365 0.0608 2.3276 1.1745 1.0372 0 0zm-160.59 -147.458l190 0 0 227.217 -190 0 0 -227.217z"/>
  <polygon class="fil2 str2" points="163.215,218.984 194.044,218.984 194.044,234.913 163.215,234.913 "/>
  <rect class="fil3 str3" x="10" y="10" width="190" height="227.217"/>
  <rect class="fil3 str3" x="10" y="160.508" width="50.9714" height="34.308"/>
  <rect class="fil3 str3" x="10" y="194.816" width="50.9714" height="42.4016"/>
  <g id="_387814704">
   <polygon id="_387816240" class="fil4 str1" points="164.451,224.992 171.555,224.992 171.555,225.984 164.451,225.984 "/>
   <polygon id="_387813360" class="fil5 str1" points="171.555,224.992 178.66,224.992 178.66,225.984 171.555,225.984 "/>
   <polygon id="_387812256" class="fil4 str1" points="178.659,224.992 185.764,224.992 185.764,225.984 178.659,225.984 "/>
   <polygon id="_387817080" class="fil5 str1" points="185.766,224.992 192.87,224.992 192.87,225.984 185.766,225.984 "/>
   <polygon id="_387820056" class="fil4 str1" points="175.838,227.982 187.201,227.982 187.201,228.973 175.838,228.973 "/>
   <polygon id="_387812688" class="fil5 str1" points="164.476,227.982 175.838,227.982 175.838,228.973 164.476,228.973 "/>
  </g>
  <path class="fil6" d="M175.952 222.581l-0.1635 0.4498 -1.3782 0 0 -0.0635c0.4052,-0.3698 0.6909,-0.672 0.8561,-0.9061 0.1652,-0.2346 0.2481,-0.4486 0.2481,-0.6426 0,-0.1482 -0.0452,-0.2699 -0.1364,-0.3651 -0.0905,-0.0953 -0.1987,-0.1429 -0.3251,-0.1429 -0.1152,0 -0.2181,0.0335 -0.3093,0.1005 -0.0911,0.0671 -0.1587,0.1658 -0.2022,0.2952l-0.0641 0c0.0288,-0.2123 0.1023,-0.3751 0.2216,-0.4892 0.1188,-0.1135 0.267,-0.1705 0.4451,-0.1705 0.1894,0 0.3475,0.0611 0.4745,0.1829 0.127,0.1217 0.1905,0.2651 0.1905,0.4303 0,0.1182 -0.0276,0.237 -0.0829,0.3552 -0.0847,0.1858 -0.2228,0.3827 -0.4133,0.5909 -0.2858,0.3122 -0.4645,0.5003 -0.5357,0.565l0.6098 0c0.124,0 0.211,-0.0047 0.261,-0.0141 0.05,-0.0088 0.0953,-0.0276 0.1352,-0.0558 0.04,-0.0283 0.0753,-0.0683 0.1053,-0.12l0.0635 0z"/>
  <path id="1" class="fil6" d="M176.226 221.876c0,-0.2663 0.04,-0.4956 0.1205,-0.6879 0.0806,-0.1923 0.187,-0.3357 0.3205,-0.4298 0.1034,-0.0747 0.2099,-0.1123 0.3204,-0.1123 0.1787,0 0.3399,0.0917 0.4821,0.274 0.1782,0.2264 0.267,0.5327 0.267,0.9202 0,0.271 -0.0388,0.5009 -0.117,0.6902 -0.0782,0.1899 -0.1776,0.3275 -0.2987,0.4128 -0.1211,0.0858 -0.2381,0.1282 -0.351,0.1282 -0.2223,0 -0.4081,-0.1312 -0.5562,-0.3946 -0.1253,-0.2216 -0.1876,-0.4886 -0.1876,-0.8008zm0.3375 0.0429c0,0.3217 0.0394,0.5845 0.1188,0.7873 0.0652,0.1711 0.1634,0.257 0.2928,0.257 0.0623,0 0.1264,-0.0283 0.1928,-0.0835 0.067,-0.0559 0.1176,-0.1494 0.1517,-0.2799 0.0529,-0.1975 0.0794,-0.4762 0.0794,-0.8355 0,-0.2663 -0.0277,-0.4886 -0.0829,-0.6667 -0.0412,-0.1323 -0.0947,-0.2258 -0.1599,-0.2811 -0.0471,-0.0376 -0.1041,-0.0564 -0.1706,-0.0564 -0.0782,0 -0.1475,0.0347 -0.2087,0.1046 -0.0823,0.0953 -0.1387,0.2452 -0.1687,0.4498 -0.03,0.2046 -0.0447,0.4057 -0.0447,0.6044z"/>
  <path id="12" class="fil6" d="M179.322 220.581l0 1.5693 0.4016 -0.3651c0.0852,-0.0782 0.1346,-0.1276 0.1481,-0.1482 0.0095,-0.0141 0.0136,-0.0276 0.0136,-0.0411 0,-0.0236 -0.0094,-0.043 -0.0283,-0.06 -0.0188,-0.0165 -0.0499,-0.0259 -0.094,-0.0282l0 -0.0553 0.6855 0 0 0.0553c-0.094,0.0023 -0.1722,0.0164 -0.2346,0.0429 -0.0629,0.0264 -0.1317,0.0735 -0.2063,0.1417l-0.4046 0.3733 0.4046 0.5116c0.1129,0.1417 0.1887,0.231 0.2275,0.2693 0.0553,0.0535 0.1035,0.0887 0.1446,0.1046 0.0289,0.0118 0.0788,0.0177 0.15,0.0177l0 0.0617 -0.7667 0 0 -0.0617c0.0441,-0.0012 0.0735,-0.0083 0.0888,-0.02 0.0158,-0.0124 0.0235,-0.0288 0.0235,-0.0512 0,-0.0264 -0.023,-0.0688 -0.0688,-0.127l-0.4845 -0.6185 0 0.5233c0,0.1023 0.0076,0.1699 0.0218,0.2016 0.0141,0.0324 0.0346,0.0553 0.0611,0.0688 0.0265,0.0141 0.0841,0.0218 0.1723,0.023l0 0.0617 -0.8026 0 0 -0.0617c0.0805,0 0.1405,-0.01 0.1805,-0.0294 0.0241,-0.013 0.0429,-0.0324 0.0553,-0.0588 0.017,-0.0377 0.0258,-0.1035 0.0258,-0.1964l0 -1.4364c0,-0.1829 -0.0041,-0.2946 -0.0117,-0.3352 -0.0082,-0.0405 -0.0218,-0.0687 -0.04,-0.0846 -0.0182,-0.0153 -0.0423,-0.023 -0.0723,-0.023 -0.0241,0 -0.06,0.0095 -0.1082,0.0294l-0.0294 -0.0605 0.4686 -0.1929 0.0788 0z"/>
  <path id="123" class="fil6" d="M181.087 221.742c0.1152,-0.1153 0.1828,-0.1811 0.2034,-0.1982 0.0517,-0.0441 0.1076,-0.0776 0.167,-0.1017 0.06,-0.0241 0.1187,-0.0365 0.1775,-0.0365 0.0988,0 0.1841,0.0289 0.2552,0.0865 0.0712,0.057 0.1188,0.1405 0.1429,0.2499 0.1182,-0.1382 0.2181,-0.2288 0.2999,-0.2717 0.0811,-0.0429 0.1652,-0.0647 0.251,-0.0647 0.0841,0 0.1582,0.0218 0.2234,0.0647 0.0647,0.0429 0.1159,0.1135 0.1541,0.2111 0.0253,0.0664 0.0376,0.1711 0.0376,0.3134l0 0.6791c0,0.0988 0.0077,0.1664 0.0224,0.2028 0.0117,0.0253 0.0329,0.0471 0.0641,0.0647 0.0311,0.0177 0.0811,0.0271 0.1517,0.0271l0 0.0617 -0.7791 0 0 -0.0617 0.0329 0c0.0676,0 0.1206,-0.0136 0.1588,-0.04 0.0264,-0.0182 0.0452,-0.0476 0.0564,-0.0876 0.0047,-0.0194 0.0071,-0.0753 0.0071,-0.167l0 -0.6791c0,-0.1288 -0.0153,-0.2193 -0.0465,-0.2722 -0.0447,-0.0735 -0.1164,-0.11 -0.2152,-0.11 -0.0611,0 -0.1223,0.0153 -0.1834,0.0453 -0.0618,0.0306 -0.1358,0.087 -0.2234,0.1699l-0.0036 0.0188 0.0036 0.0741 0 0.7532c0,0.1076 0.0064,0.1746 0.0182,0.2011 0.0123,0.0264 0.0347,0.0488 0.0682,0.0664 0.0329,0.0177 0.0899,0.0271 0.1705,0.0271l0 0.0617 -0.7979 0 0 -0.0617c0.0876,0 0.1476,-0.0106 0.1805,-0.0312 0.0324,-0.0206 0.0553,-0.0517 0.0676,-0.0929 0.0059,-0.02 0.0089,-0.0764 0.0089,-0.1705l0 -0.6791c0,-0.1288 -0.0188,-0.2211 -0.0571,-0.2769 -0.0505,-0.0735 -0.1211,-0.1106 -0.2116,-0.1106 -0.0624,0 -0.1235,0.0165 -0.1847,0.05 -0.0952,0.0506 -0.1687,0.1076 -0.2204,0.1705l0 0.8461c0,0.1029 0.0076,0.1705 0.0217,0.2011 0.0141,0.0311 0.0359,0.0547 0.0635,0.0699 0.0282,0.0153 0.0853,0.0236 0.1717,0.0236l0 0.0617 -0.7802 0 0 -0.0617c0.0723,0 0.1229,-0.0083 0.1517,-0.0236 0.0282,-0.0152 0.0505,-0.0399 0.0652,-0.074 0.0147,-0.0341 0.0224,-0.0994 0.0224,-0.197l0 -0.6033c0,-0.1734 -0.0053,-0.2851 -0.0153,-0.3357 -0.0082,-0.0382 -0.0212,-0.0641 -0.0382,-0.0782 -0.0171,-0.0147 -0.0406,-0.0217 -0.0706,-0.0217 -0.0323,0 -0.0705,0.0088 -0.1152,0.0258l-0.0259 -0.0623 0.4751 -0.1929 0.0741 0 0 0.3364z"/>
  <path class="fil6" d="M172.455 230.623l0.5686 -0.2775 0.057 0 0 1.9726c0,0.1306 0.0053,0.2123 0.0159,0.2446 0.0112,0.0318 0.0341,0.0565 0.0682,0.0741 0.0347,0.0171 0.1047,0.027 0.2105,0.0294l0 0.0635 -0.879 0 0 -0.0635c0.1105,-0.0024 0.1817,-0.0118 0.214,-0.0288 0.0318,-0.0165 0.0541,-0.0388 0.067,-0.067 0.0124,-0.0283 0.0189,-0.1123 0.0189,-0.2523l0 -1.2612c0,-0.1699 -0.0059,-0.2787 -0.0171,-0.3269 -0.0082,-0.037 -0.0229,-0.0641 -0.0441,-0.0811 -0.0212,-0.0171 -0.0464,-0.0259 -0.0764,-0.0259 -0.0424,0 -0.1017,0.0177 -0.1776,0.0535l-0.0259 -0.0535z"/>
  <path id="1" class="fil6" d="M173.933 231.575c0,-0.2663 0.04,-0.4956 0.1205,-0.6879 0.0806,-0.1923 0.187,-0.3357 0.3205,-0.4298 0.1034,-0.0747 0.2099,-0.1123 0.3204,-0.1123 0.1787,0 0.3399,0.0917 0.4821,0.274 0.1782,0.2264 0.267,0.5327 0.267,0.9202 0,0.271 -0.0388,0.5009 -0.117,0.6902 -0.0782,0.1899 -0.1776,0.3275 -0.2987,0.4128 -0.1211,0.0858 -0.2381,0.1282 -0.351,0.1282 -0.2223,0 -0.4081,-0.1312 -0.5562,-0.3946 -0.1253,-0.2216 -0.1876,-0.4886 -0.1876,-0.8008zm0.3375 0.0429c0,0.3217 0.0394,0.5845 0.1188,0.7873 0.0652,0.1711 0.1634,0.257 0.2928,0.257 0.0623,0 0.1264,-0.0283 0.1928,-0.0835 0.067,-0.0559 0.1176,-0.1494 0.1517,-0.2799 0.0529,-0.1975 0.0794,-0.4762 0.0794,-0.8355 0,-0.2663 -0.0277,-0.4886 -0.0829,-0.6667 -0.0412,-0.1323 -0.0947,-0.2258 -0.1599,-0.2811 -0.0471,-0.0376 -0.1041,-0.0564 -0.1706,-0.0564 -0.0782,0 -0.1475,0.0347 -0.2087,0.1046 -0.0823,0.0953 -0.1387,0.2452 -0.1687,0.4498 -0.03,0.2046 -0.0447,0.4057 -0.0447,0.6044z"/>
  <path id="12" class="fil6" d="M177.03 231.441c0.1152,-0.1153 0.1828,-0.1811 0.2034,-0.1982 0.0517,-0.0441 0.1076,-0.0776 0.167,-0.1017 0.06,-0.0241 0.1187,-0.0365 0.1775,-0.0365 0.0988,0 0.1841,0.0289 0.2552,0.0865 0.0712,0.057 0.1188,0.1405 0.1429,0.2499 0.1182,-0.1382 0.2181,-0.2288 0.2999,-0.2717 0.0811,-0.0429 0.1652,-0.0647 0.251,-0.0647 0.0841,0 0.1582,0.0218 0.2234,0.0647 0.0647,0.0429 0.1159,0.1135 0.1541,0.2111 0.0253,0.0664 0.0376,0.1711 0.0376,0.3134l0 0.6791c0,0.0988 0.0077,0.1664 0.0224,0.2028 0.0117,0.0253 0.0329,0.0471 0.0641,0.0647 0.0311,0.0177 0.0811,0.0271 0.1517,0.0271l0 0.0617 -0.7791 0 0 -0.0617 0.0329 0c0.0676,0 0.1206,-0.0136 0.1588,-0.04 0.0264,-0.0182 0.0452,-0.0476 0.0564,-0.0876 0.0047,-0.0194 0.0071,-0.0753 0.0071,-0.167l0 -0.6791c0,-0.1288 -0.0153,-0.2193 -0.0465,-0.2722 -0.0447,-0.0735 -0.1164,-0.11 -0.2152,-0.11 -0.0611,0 -0.1223,0.0153 -0.1834,0.0453 -0.0618,0.0306 -0.1358,0.087 -0.2234,0.1699l-0.0036 0.0188 0.0036 0.0741 0 0.7532c0,0.1076 0.0064,0.1746 0.0182,0.2011 0.0123,0.0264 0.0347,0.0488 0.0682,0.0664 0.0329,0.0177 0.0899,0.0271 0.1705,0.0271l0 0.0617 -0.7979 0 0 -0.0617c0.0876,0 0.1476,-0.0106 0.1805,-0.0312 0.0324,-0.0206 0.0553,-0.0517 0.0676,-0.0929 0.0059,-0.02 0.0089,-0.0764 0.0089,-0.1705l0 -0.6791c0,-0.1288 -0.0188,-0.2211 -0.0571,-0.2769 -0.0505,-0.0735 -0.1211,-0.1106 -0.2116,-0.1106 -0.0624,0 -0.1235,0.0165 -0.1847,0.05 -0.0952,0.0506 -0.1687,0.1076 -0.2204,0.1705l0 0.8461c0,0.1029 0.0076,0.1705 0.0217,0.2011 0.0141,0.0311 0.0359,0.0547 0.0635,0.0699 0.0282,0.0153 0.0853,0.0236 0.1717,0.0236l0 0.0617 -0.7802 0 0 -0.0617c0.0723,0 0.1229,-0.0083 0.1517,-0.0236 0.0282,-0.0152 0.0505,-0.0399 0.0652,-0.074 0.0147,-0.0341 0.0224,-0.0994 0.0224,-0.197l0 -0.6033c0,-0.1734 -0.0053,-0.2851 -0.0153,-0.3357 -0.0082,-0.0382 -0.0212,-0.0641 -0.0382,-0.0782 -0.0171,-0.0147 -0.0406,-0.0217 -0.0706,-0.0217 -0.0323,0 -0.0705,0.0088 -0.1152,0.0258l-0.0259 -0.0623 0.4751 -0.1929 0.0741 0 0 0.3364z"/>
  <path id="123" class="fil6" d="M179.707 230.28c0.0482,0 0.0894,0.0171 0.1235,0.0506 0.0335,0.0341 0.0506,0.0753 0.0506,0.1235 0,0.0482 -0.0171,0.0893 -0.0506,0.124 -0.0341,0.0341 -0.0753,0.0518 -0.1235,0.0518 -0.0482,0 -0.0893,-0.0177 -0.124,-0.0518 -0.0341,-0.0347 -0.0518,-0.0758 -0.0518,-0.124 0,-0.0482 0.0171,-0.0894 0.0512,-0.1235 0.0335,-0.0335 0.0752,-0.0506 0.1246,-0.0506zm0.1429 0.8249l0 1.2683c0,0.0988 0.0071,0.164 0.0218,0.197 0.0141,0.0329 0.0352,0.057 0.0635,0.0735 0.0282,0.0158 0.0799,0.0241 0.1546,0.0241l0 0.0617 -0.7667 0 0 -0.0617c0.077,0 0.1288,-0.0077 0.1546,-0.023 0.0265,-0.0147 0.0476,-0.0394 0.0629,-0.0741 0.0159,-0.0341 0.0236,-0.0999 0.0236,-0.1975l0 -0.6086c0,-0.1711 -0.0053,-0.2816 -0.0153,-0.3322 -0.0083,-0.037 -0.0212,-0.0623 -0.0382,-0.0764 -0.0171,-0.0147 -0.0406,-0.0217 -0.0706,-0.0217 -0.0323,0 -0.0711,0.0088 -0.117,0.0258l-0.0241 -0.0623 0.4751 -0.1929 0.0758 0z"/>
  <path class="fil6" d="M195.831 233.983c0,-0.1745 0.0447,-0.3448 0.1341,-0.5113 0.0898,-0.166 0.2178,-0.2958 0.3848,-0.3885 0.1665,-0.0927 0.3405,-0.1392 0.5216,-0.1392 0.1792,0 0.3514,0.0456 0.5165,0.1373 0.1655,0.0913 0.2939,0.2197 0.3852,0.3843 0.0917,0.1651 0.1373,0.3373 0.1373,0.5174 0,0.1802 -0.0456,0.3528 -0.1373,0.5174 -0.0913,0.1651 -0.2197,0.2935 -0.3852,0.3852 -0.1651,0.0922 -0.3373,0.1379 -0.5165,0.1379 -0.1811,0 -0.3551,-0.0466 -0.5216,-0.1397 -0.167,-0.0932 -0.295,-0.223 -0.3848,-0.3895 -0.0894,-0.166 -0.1341,-0.3368 -0.1341,-0.5113zm0.1722 0c0,0.1463 0.0376,0.2884 0.1124,0.4266 0.0748,0.1383 0.182,0.2465 0.3208,0.3246 0.1392,0.0781 0.2841,0.1171 0.4351,0.1171 0.1496,0 0.293,-0.0386 0.4304,-0.1152 0.1373,-0.0767 0.2446,-0.1839 0.3212,-0.3218 0.0767,-0.1378 0.1153,-0.2812 0.1153,-0.4313 0,-0.1496 -0.0386,-0.2935 -0.1153,-0.4313 -0.0766,-0.1378 -0.1839,-0.2446 -0.3212,-0.3208 -0.1374,-0.0762 -0.2808,-0.1143 -0.4304,-0.1143 -0.151,0 -0.2959,0.0386 -0.4351,0.1162 -0.1388,0.0776 -0.246,0.1858 -0.3208,0.3245 -0.0748,0.1388 -0.1124,0.2808 -0.1124,0.4257zm1.0362 -0.3335l0.0499 -0.1693c0.1147,0.0277 0.2065,0.0861 0.2747,0.1754 0.0686,0.0899 0.1025,0.1985 0.1025,0.326 0,0.1618 -0.0522,0.293 -0.1571,0.3942 -0.1044,0.1011 -0.2498,0.1519 -0.4351,0.1519 -0.1213,0 -0.2267,-0.023 -0.3165,-0.0691 -0.0894,-0.0461 -0.1571,-0.1115 -0.2023,-0.1962 -0.0456,-0.0851 -0.0682,-0.1825 -0.0682,-0.2916 0,-0.1223 0.0292,-0.2239 0.0875,-0.3048 0.0583,-0.0804 0.1373,-0.1359 0.2375,-0.1651l0.04 0.1641c-0.0682,0.0273 -0.1199,0.0683 -0.1566,0.1219 -0.0363,0.0536 -0.0541,0.1166 -0.0541,0.1895 0,0.1054 0.0376,0.1924 0.1129,0.2611 0.0752,0.0682 0.1834,0.1025 0.3236,0.1025 0.1406,0 0.2469,-0.0324 0.3194,-0.0969 0.0719,-0.0649 0.1081,-0.1486 0.1081,-0.2516 0,-0.0828 -0.024,-0.1552 -0.0719,-0.2178 -0.0475,-0.0626 -0.1124,-0.1039 -0.1943,-0.1242z"/>
  <path id="1" class="fil6" d="M197.886 231.029l-0.1849 0c0.1454,0.0927 0.2178,0.2291 0.2178,0.4093 0,0.1166 -0.032,0.2238 -0.0964,0.3217 -0.064,0.0978 -0.1538,0.1735 -0.2695,0.2276 -0.1153,0.0537 -0.2474,0.0805 -0.3975,0.0805 -0.1458,0 -0.2784,-0.0245 -0.3974,-0.0729 -0.119,-0.049 -0.2103,-0.1219 -0.2733,-0.2192 -0.0635,-0.0974 -0.0955,-0.2065 -0.0955,-0.3269 0,-0.088 0.0188,-0.1665 0.056,-0.2352 0.0371,-0.0692 0.0856,-0.1251 0.1453,-0.1684l-0.7248 0 0 -0.2465 2.0202 0 0 0.23zm-0.7305 0.7841c0.1877,0 0.3279,-0.0395 0.4205,-0.1185 0.0927,-0.079 0.1393,-0.1722 0.1393,-0.2799 0,-0.1081 -0.0447,-0.2003 -0.1332,-0.2761 -0.0884,-0.0757 -0.2239,-0.1138 -0.4059,-0.1138 -0.2004,0 -0.3471,0.0386 -0.4407,0.1157 -0.0941,0.0772 -0.1407,0.1722 -0.1407,0.2855 0,0.1101 0.0452,0.2023 0.135,0.2761 0.0899,0.0739 0.2319,0.111 0.4257,0.111z"/>
  <polygon id="12" class="fil6" points="197.279,230.505 197.03,230.505 197.03,229.743 197.279,229.743 "/>
  <path id="123" class="fil6" d="M197.886 229.468l-1.4633 0 0 -0.2215 0.2051 0c-0.0715,-0.0461 -0.1294,-0.1073 -0.1727,-0.1835 -0.0437,-0.0762 -0.0658,-0.1632 -0.0658,-0.2605 0,-0.1082 0.0226,-0.1971 0.0677,-0.2663 0.0452,-0.0696 0.1077,-0.1185 0.1886,-0.1467 -0.1707,-0.1162 -0.2563,-0.2667 -0.2563,-0.452 0,-0.1454 0.0404,-0.2569 0.1209,-0.3349 0.0804,-0.0781 0.2041,-0.1172 0.3711,-0.1172l1.0047 0 0 0.2465 -0.9219 0c-0.0993,0 -0.1708,0.008 -0.2145,0.024 -0.0433,0.0165 -0.0786,0.0456 -0.1054,0.0875 -0.0263,0.0423 -0.0399,0.0922 -0.0399,0.1491 0,0.103 0.0343,0.1881 0.103,0.2563 0.0682,0.0678 0.1778,0.1021 0.3283,0.1021l0.8504 0 0 0.2479 -0.9506 0c-0.1105,0 -0.1933,0.0202 -0.2484,0.0607 -0.055,0.0404 -0.0827,0.1063 -0.0827,0.1985 0,0.0696 0.0183,0.134 0.0555,0.1933 0.0366,0.0593 0.0903,0.1025 0.1608,0.1289 0.071,0.0268 0.1731,0.04 0.3062,0.04l0.7592 0 0 0.2478z"/>
  <path id="1234" class="fil6" d="M197.705 226.163c0.0781,0.0922 0.1331,0.1806 0.1655,0.2653 0.032,0.0851 0.048,0.1764 0.048,0.2737 0,0.1609 -0.039,0.2841 -0.1176,0.3707 -0.0785,0.0861 -0.1792,0.1293 -0.301,0.1293 -0.072,0 -0.1373,-0.016 -0.1966,-0.0489 -0.0593,-0.0324 -0.1068,-0.0752 -0.1425,-0.1279 -0.0358,-0.0532 -0.0631,-0.1124 -0.0814,-0.1788 -0.0127,-0.0484 -0.0254,-0.1218 -0.0372,-0.2201 -0.024,-0.2004 -0.0522,-0.3481 -0.0856,-0.4426 -0.0338,-0.001 -0.0555,-0.0014 -0.0644,-0.0014 -0.1011,0 -0.1726,0.0235 -0.2136,0.0705 -0.0564,0.0631 -0.0842,0.1576 -0.0842,0.2823 0,0.1166 0.0203,0.2027 0.0612,0.2587 0.0409,0.0555 0.1133,0.0964 0.2173,0.1232l-0.0334 0.2422c-0.1035,-0.0221 -0.1877,-0.0583 -0.2512,-0.1086 -0.0639,-0.0504 -0.1133,-0.1237 -0.1477,-0.2192 -0.0343,-0.0955 -0.0517,-0.206 -0.0517,-0.3321 0,-0.1251 0.015,-0.2262 0.0442,-0.3043 0.0296,-0.0781 0.0663,-0.1355 0.111,-0.1726 0.0447,-0.0367 0.1007,-0.0621 0.1689,-0.0772 0.0423,-0.008 0.1185,-0.0122 0.2286,-0.0122l0.3306 0c0.231,0 0.3768,-0.0052 0.4375,-0.016 0.0611,-0.0104 0.1199,-0.0315 0.1759,-0.0626l0 0.2592c-0.0513,0.0254 -0.1115,0.0423 -0.1806,0.0494zm-0.5541 0.0207c0.0371,0.0903 0.0682,0.2253 0.0941,0.405 0.0145,0.102 0.031,0.1745 0.0493,0.2163 0.0184,0.0424 0.0452,0.0753 0.081,0.0979 0.0352,0.023 0.0743,0.0348 0.1175,0.0348 0.0664,0 0.1214,-0.0254 0.1656,-0.0753 0.0438,-0.0498 0.0659,-0.1232 0.0659,-0.2196 0,-0.0955 -0.0207,-0.1807 -0.0626,-0.255 -0.0419,-0.0743 -0.0992,-0.1293 -0.1717,-0.1641 -0.056,-0.0268 -0.1387,-0.04 -0.2479,-0.04l-0.0912 0z"/>
  <path id="12345" class="fil6" d="M198.446 225.548l-2.024 0 0 -0.2257 0.19 0c-0.0743,-0.0532 -0.1303,-0.1134 -0.1674,-0.1807 -0.0372,-0.0668 -0.056,-0.1481 -0.056,-0.2436 0,-0.1251 0.0324,-0.2352 0.0964,-0.3307 0.0645,-0.0959 0.1552,-0.1679 0.2724,-0.2163 0.1171,-0.049 0.2455,-0.0734 0.3852,-0.0734 0.1496,0 0.2846,0.0268 0.4045,0.0809 0.1199,0.0536 0.2117,0.1317 0.2756,0.2342 0.0635,0.1026 0.0955,0.2103 0.0955,0.3232 0,0.0827 -0.0174,0.1566 -0.0522,0.2224 -0.0348,0.0659 -0.079,0.1195 -0.1322,0.1619l0.7122 0 0 0.2478zm-1.2841 -0.2243c0.1881,0 0.3274,-0.0381 0.4177,-0.1143 0.0898,-0.0762 0.135,-0.1689 0.135,-0.2771 0,-0.11 -0.0466,-0.2046 -0.1402,-0.2831 -0.0931,-0.0786 -0.2375,-0.1181 -0.4332,-0.1181 -0.1868,0 -0.326,0.0386 -0.4191,0.1152 -0.0927,0.0767 -0.1392,0.1684 -0.1392,0.2747 0,0.1059 0.0493,0.1995 0.1481,0.2808 0.0988,0.0814 0.2427,0.1219 0.4309,0.1219z"/>
  <path id="123456" class="fil6" d="M197.449 224.078l-0.0385 -0.2451c0.0983,-0.0136 0.1735,-0.0522 0.2262,-0.1152 0.0522,-0.0626 0.0786,-0.1505 0.0786,-0.2639 0,-0.1138 -0.0236,-0.1985 -0.0697,-0.2535 -0.0465,-0.0551 -0.1011,-0.0828 -0.1632,-0.0828 -0.0564,0 -0.1002,0.0245 -0.1326,0.0734 -0.0221,0.0338 -0.0499,0.1185 -0.0837,0.2535 -0.0461,0.1816 -0.0857,0.3081 -0.1195,0.3782 -0.0334,0.0701 -0.08,0.1237 -0.1392,0.1599 -0.0593,0.0362 -0.1247,0.0546 -0.1962,0.0546 -0.0654,0 -0.1256,-0.0151 -0.1811,-0.0452 -0.056,-0.0296 -0.102,-0.0705 -0.1387,-0.1218 -0.0283,-0.0386 -0.0527,-0.0913 -0.0725,-0.1576 -0.0197,-0.0668 -0.0296,-0.1383 -0.0296,-0.2145 0,-0.1147 0.0169,-0.2154 0.0499,-0.3024 0.0329,-0.087 0.0776,-0.151 0.134,-0.1924 0.0569,-0.0414 0.1322,-0.0696 0.2267,-0.0851l0.0334 0.2422c-0.0752,0.0113 -0.134,0.0433 -0.1764,0.096 -0.0423,0.0526 -0.0635,0.1274 -0.0635,0.2238 0,0.1139 0.0188,0.1952 0.0565,0.2437 0.0376,0.0489 0.0818,0.0734 0.1321,0.0734 0.0325,0 0.0612,-0.0104 0.0871,-0.0306 0.0268,-0.0202 0.0484,-0.0517 0.0663,-0.095 0.0089,-0.0249 0.0301,-0.0979 0.063,-0.2192 0.0471,-0.1755 0.0852,-0.2977 0.1153,-0.3669 0.0296,-0.0696 0.0733,-0.1242 0.1302,-0.1637 0.057,-0.0395 0.1275,-0.0592 0.2122,-0.0592 0.0828,0 0.1604,0.0244 0.2338,0.0724 0.0729,0.0484 0.1293,0.1181 0.1693,0.2088 0.04,0.0908 0.0597,0.1938 0.0597,0.3086 0,0.1905 -0.0395,0.3354 -0.1185,0.4351 -0.079,0.0997 -0.1961,0.1632 -0.3514,0.1905z"/>
  <polygon id="1234567" class="fil6" points="197.886,222.497 197.603,222.497 197.603,222.215 197.886,222.215 "/>
  <path id="12345678" class="fil6" d="M197.35 220.828l0.032 -0.2437c0.1679,0.0264 0.2996,0.0946 0.3946,0.2047 0.095,0.1095 0.1425,0.2445 0.1425,0.4045 0,0.1999 -0.0654,0.3612 -0.1961,0.4826 -0.1308,0.1218 -0.3185,0.1829 -0.563,0.1829 -0.1581,0 -0.2964,-0.0263 -0.4149,-0.0785 -0.1185,-0.0527 -0.2074,-0.1322 -0.2667,-0.2394 -0.0593,-0.1068 -0.0889,-0.2235 -0.0889,-0.349 0,-0.159 0.0404,-0.2893 0.1209,-0.39 0.0804,-0.1011 0.1942,-0.166 0.3424,-0.1947l0.0372 0.2413c-0.0983,0.023 -0.1722,0.0635 -0.222,0.1218 -0.0494,0.0583 -0.0744,0.1289 -0.0744,0.2117 0,0.1251 0.0447,0.2267 0.1346,0.3048 0.0893,0.0781 0.2309,0.1171 0.4247,0.1171 0.1966,0 0.3396,-0.0376 0.429,-0.1134 0.0889,-0.0752 0.1336,-0.1735 0.1336,-0.2949 0,-0.0973 -0.0301,-0.1783 -0.0899,-0.2436 -0.0597,-0.0654 -0.1514,-0.1068 -0.2756,-0.1242z"/>
  <path id="123456789" class="fil6" d="M197.154 220.465c-0.2709,0 -0.4718,-0.0753 -0.6021,-0.2262 -0.1081,-0.1256 -0.1627,-0.279 -0.1627,-0.4601 0,-0.2013 0.0658,-0.3659 0.198,-0.4934 0.1317,-0.1279 0.3138,-0.1914 0.5461,-0.1914 0.1886,0 0.3368,0.0282 0.4445,0.0846 0.1082,0.0565 0.1919,0.1388 0.2517,0.2465 0.0597,0.1082 0.0893,0.2258 0.0893,0.3537 0,0.2046 -0.0654,0.3702 -0.1971,0.4967 -0.1312,0.1266 -0.3203,0.1896 -0.5677,0.1896zm0 -0.2549c0.1877,0 0.3279,-0.041 0.421,-0.1228 0.0936,-0.0819 0.1402,-0.1849 0.1402,-0.3086 0,-0.1232 -0.0471,-0.2257 -0.1407,-0.3076 -0.0936,-0.0814 -0.2366,-0.1223 -0.4285,-0.1223 -0.1811,0 -0.3184,0.0409 -0.4116,0.1233 -0.0931,0.0823 -0.1397,0.1843 -0.1397,0.3066 0,0.1237 0.0466,0.2267 0.1393,0.3086 0.0926,0.0818 0.2328,0.1228 0.42,0.1228z"/>
  <path id="12345678910" class="fil6" d="M197.886 218.802l-1.4633 0 0 -0.2215 0.2051 0c-0.0715,-0.0461 -0.1294,-0.1073 -0.1727,-0.1835 -0.0437,-0.0762 -0.0658,-0.1632 -0.0658,-0.2605 0,-0.1082 0.0226,-0.1971 0.0677,-0.2663 0.0452,-0.0696 0.1077,-0.1185 0.1886,-0.1467 -0.1707,-0.1162 -0.2563,-0.2667 -0.2563,-0.452 0,-0.1454 0.0404,-0.2569 0.1209,-0.3349 0.0804,-0.0781 0.2041,-0.1172 0.3711,-0.1172l1.0047 0 0 0.2465 -0.9219 0c-0.0993,0 -0.1708,0.008 -0.2145,0.024 -0.0433,0.0165 -0.0786,0.0456 -0.1054,0.0875 -0.0263,0.0423 -0.0399,0.0922 -0.0399,0.1491 0,0.103 0.0343,0.1881 0.103,0.2563 0.0682,0.0678 0.1778,0.1021 0.3283,0.1021l0.8504 0 0 0.2479 -0.9506 0c-0.1105,0 -0.1933,0.0202 -0.2484,0.0607 -0.055,0.0404 -0.0827,0.1063 -0.0827,0.1985 0,0.0696 0.0183,0.134 0.0555,0.1933 0.0366,0.0593 0.0903,0.1025 0.1608,0.1289 0.071,0.0268 0.1731,0.04 0.3062,0.04l0.7592 0 0 0.2478z"/>
 </g>
</svg>
